# xmcd
#
# Track frame offsets: 
#        150
#        12862
#        27687
#        45732
#        59412
#        68982
#        92172
#        104004
#        115882
#        134780
#        147602
#
# Disc length: 2134 seconds
#
# Revision: 2
# Processed by: cddbd v1.5.1PL0 Copyright (c) Steve Scherf et al.
# Submitted via: ExactAudioCopy v0.95a5
#
DISCID=af08540b
DTITLE=Kelly Richey - Eyes Of A Woman
DYEAR=1997
DGENRE=Blues
TTITLE0=Talks All Over Town
TTITLE1=You Was Wrong
TTITLE2=Good Days Bad Days
TTITLE3=My Baby's Gone Crazy
TTITLE4=Stop Actin' Crazy
TTITLE5=Eyes Of A Woman
TTITLE6=Travelin'
TTITLE7=Someday Baby
TTITLE8=Blues Don't Lie
TTITLE9=It Ain't Easy
TTITLE10=Strollin' After Hours
EXTD=label-Sweet Lucy 1130 \nNov 1997\n\nKelly Richey Guitar, Vocals  
EXTD=\nRobbie Bartlett Vocals (bckgr)  \nKeith Hubbard Organ  \nTom Jo
EXTD=lly Horn  \nKopana Terry Drums\nTerry Williamson Bass 
EXTT0=
EXTT1=
EXTT2=
EXTT3=
EXTT4=
EXTT5=
EXTT6=
EXTT7=
EXTT8=
EXTT9=
EXTT10=
PLAYORDER=
